<svg width="24" height="24" viewBox="0 0 24 24" fill="none" xmlns="http://www.w3.org/2000/svg">
<g id="contact_icons">
<mask id="mask0_531_472" style="mask-type:alpha" maskUnits="userSpaceOnUse" x="0" y="0" width="24" height="24">
<rect id="Bounding box" width="24" height="24" fill="#D9D9D9"/>
</mask>
<g mask="url(#mask0_531_472)">
<path id="history_toggle_off" d="M12.7499 11.7058L15.8269 14.7827C15.9653 14.9212 16.033 15.0952 16.0298 15.3048C16.0265 15.5144 15.9557 15.6885 15.8173 15.8269C15.6788 15.9654 15.5048 16.0346 15.2952 16.0346C15.0855 16.0346 14.9115 15.9654 14.7731 15.8269L11.5211 12.5654C11.4275 12.4718 11.3589 12.3705 11.3154 12.2615C11.2718 12.1526 11.25 12.0378 11.25 11.9173V8.00002C11.25 7.78721 11.3218 7.60901 11.4654 7.46542C11.6089 7.32184 11.7871 7.25005 12 7.25005C12.2128 7.25005 12.391 7.32184 12.5346 7.46542C12.6781 7.60901 12.7499 7.78721 12.7499 8.00002V11.7058ZM3.39809 16.0462C3.14935 15.5308 2.95351 14.9955 2.81056 14.4404C2.66763 13.8853 2.57436 13.3218 2.53076 12.75H4.04611C4.08969 13.1897 4.16855 13.6231 4.28266 14.05C4.39676 14.477 4.54612 14.8923 4.73074 15.2962L3.39809 16.0462ZM2.53076 11.25C2.57436 10.6782 2.66924 10.1122 2.81539 9.55195C2.96154 8.9917 3.1641 8.45067 3.42309 7.92887L4.73074 8.67885C4.5397 9.0827 4.38874 9.49969 4.27784 9.92982C4.16694 10.36 4.08969 10.8 4.04611 11.25H2.53076ZM6.63654 19.8423C6.14807 19.5026 5.69614 19.124 5.28076 18.7067C4.86538 18.2894 4.48781 17.8365 4.14806 17.3481L5.45571 16.5885C5.72111 16.9654 6.01503 17.3151 6.33746 17.6375C6.6599 17.96 7.00958 18.2539 7.38651 18.5193L6.63654 19.8423ZM5.48071 7.38657L4.14806 6.6366C4.48781 6.14813 4.86538 5.69781 5.28076 5.28562C5.69614 4.87344 6.14807 4.49748 6.63654 4.15775L7.38651 5.48077C7.01985 5.74617 6.67689 6.03849 6.35766 6.35772C6.03843 6.67696 5.74611 7.01991 5.48071 7.38657ZM11.25 21.4692C10.6782 21.4256 10.1122 21.3307 9.55189 21.1846C8.99164 21.0384 8.45061 20.8359 7.92881 20.5769L8.67879 19.2692C9.08264 19.4603 9.49963 19.6112 9.92976 19.7221C10.3599 19.833 10.8 19.9103 11.25 19.9539V21.4692ZM8.67879 4.7308L7.92881 3.42315C8.45061 3.16416 8.99164 2.9616 9.55189 2.81545C10.1122 2.6693 10.6782 2.57442 11.25 2.53082V4.04617C10.8 4.08976 10.3599 4.167 9.92976 4.2779C9.49963 4.3888 9.08264 4.53977 8.67879 4.7308ZM12.7499 21.4692V19.9539C13.2 19.9103 13.64 19.833 14.0702 19.7221C14.5003 19.6112 14.9173 19.4603 15.3211 19.2692L16.0711 20.5769C15.5493 20.8359 15.0083 21.0384 14.448 21.1846C13.8878 21.3307 13.3217 21.4256 12.7499 21.4692ZM15.3211 4.7308C14.9173 4.53977 14.5003 4.3888 14.0702 4.2779C13.64 4.167 13.2 4.08976 12.7499 4.04617V2.53082C13.3217 2.57442 13.8878 2.6693 14.448 2.81545C15.0083 2.9616 15.5493 3.16416 16.0711 3.42315L15.3211 4.7308ZM17.3634 19.8423L16.6134 18.5193C16.9801 18.2539 17.323 17.9616 17.6423 17.6423C17.9615 17.3231 18.2538 16.9801 18.5192 16.6135L19.8422 17.3634C19.5025 17.8519 19.1265 18.3048 18.7144 18.7221C18.3022 19.1394 17.8519 19.5128 17.3634 19.8423ZM18.5192 7.37697C18.2538 7.01029 17.9615 6.66893 17.6423 6.3529C17.323 6.03688 16.9801 5.74617 16.6134 5.48077L17.3634 4.15775C17.8519 4.48723 18.3022 4.85646 18.7144 5.26542C19.1265 5.67441 19.4974 6.12313 19.8269 6.6116L18.5192 7.37697ZM19.9538 11.25C19.9102 10.8 19.8314 10.36 19.7173 9.92982C19.6032 9.49969 19.4506 9.0795 19.2596 8.66925L20.5768 7.90387C20.8256 8.43592 21.0256 8.98208 21.1769 9.54235C21.3281 10.1026 21.4256 10.6718 21.4692 11.25H19.9538ZM20.5768 16.0712L19.2692 15.3212C19.4602 14.9173 19.6112 14.5004 19.7221 14.0702C19.833 13.6401 19.9102 13.2 19.9538 12.75H21.4692C21.4256 13.3218 21.3307 13.8878 21.1845 14.4481C21.0384 15.0083 20.8358 15.5494 20.5768 16.0712Z" fill="#797282"/>
</g>
</g>
</svg>
