<svg width="40" height="40" viewBox="0 0 40 40" fill="none" xmlns="http://www.w3.org/2000/svg">
<g id="Component 11">
<rect x="0.5" y="0.5" width="39" height="39" rx="19.5" stroke="#D9D9E3"/>
<path id="Vector" d="M25.5345 29H14.4655C12.5546 29 11 27.4454 11 25.5345V14.4655C11 12.5546 12.5546 11 14.4655 11H25.5345C27.4454 11 29 12.5546 29 14.4655V25.5344C29 27.4453 27.4453 29 25.5345 29ZM14.4655 12.5518C13.4102 12.5518 12.5517 13.4103 12.5517 14.4656V25.5345C12.5517 26.5897 13.4102 27.4483 14.4655 27.4483H25.5345C26.5898 27.4483 27.4483 26.5898 27.4483 25.5345V14.4655C27.4483 13.4103 26.5898 12.5517 25.5345 12.5517L14.4655 12.5518ZM20 24.7708C17.3694 24.7708 15.2292 22.6306 15.2292 20C15.2292 17.3694 17.3694 15.2292 20 15.2292C22.6306 15.2292 24.7708 17.3694 24.7708 20C24.7708 22.6306 22.6306 24.7708 20 24.7708ZM20 16.7809C18.225 16.7809 16.781 18.2249 16.781 20C16.781 21.7751 18.225 23.2191 20 23.2191C21.775 23.2191 23.2191 21.7751 23.2191 20C23.2191 18.2249 21.7749 16.7809 20 16.7809Z" fill="#797282"/>
</g>
</svg>
