<svg width="40" height="40" viewBox="0 0 40 40" fill="none" xmlns="http://www.w3.org/2000/svg">
<g id="social_icons">
<rect x="0.5" y="0.5" width="39" height="39" rx="19.5" stroke="#D9D9E3"/>
<path id="Vector" d="M27.7157 28C27.0408 28 26.2172 27.9799 25.8655 27.9713C25.7653 27.9688 25.7021 27.9672 25.6813 27.967C24.9144 27.9633 24.2226 27.6665 23.6817 27.1084C23.345 26.761 23.03 26.394 22.7254 26.0389L22.7148 26.0266C22.5527 25.8379 22.3852 25.6428 22.2189 25.4561C22.0728 25.2923 21.9381 25.1606 21.8072 25.054C21.7315 24.9921 21.6759 24.9712 21.6525 24.9665C21.6411 24.9798 21.6185 25.0116 21.5951 25.0748C21.4833 25.3775 21.3528 26.3023 21.3264 26.5768C21.2716 27.3557 20.7653 27.8684 20.004 27.9131C19.762 27.9271 19.5248 27.9343 19.2984 27.9343C17.7946 27.9343 16.5154 27.6195 15.3876 26.9718C14.2683 26.3291 13.272 25.3977 12.3419 24.1246C11.2222 22.5926 10.2183 20.8263 9.08708 18.3977C9.03902 18.2945 8.17229 16.3173 8.07606 16.0585C8.0617 16.02 8.04996 15.9805 8.04076 15.9402C7.92002 15.4086 8.07197 14.9204 8.43744 14.6662C8.54894 14.5887 8.67616 14.5412 8.80842 14.5279C8.85903 14.5226 9.01297 14.5071 9.69001 14.5071C10.6401 14.5071 12.0065 14.5376 12.0875 14.5406C12.0926 14.5408 12.0978 14.541 12.103 14.5414C12.8032 14.582 13.2937 14.9605 13.5607 15.6665C14.1781 17.3009 14.91 18.6745 15.798 19.8662C15.8652 19.957 15.9515 20.0479 16.0481 20.1305C16.1228 19.8248 16.185 19.3674 16.189 19.1344C16.205 18.2611 16.1867 17.6897 16.1427 16.8118C16.1175 16.3163 15.9616 16.1895 15.6434 16.1067C15.3596 16.0327 15.1335 15.8032 15.0491 15.5035C14.9648 15.2038 15.0347 14.8785 15.233 14.6486C15.662 14.1512 16.2213 14.0541 16.7619 14.0232C17.0305 14.0076 17.3226 14 17.6546 14C17.959 14 18.2638 14.0061 18.5584 14.0121C18.761 14.0162 18.9636 14.0203 19.166 14.0224C19.56 14.0262 19.9082 14.0647 20.2292 14.1398C20.8135 14.2761 21.2093 14.7391 21.3145 15.4099C21.3566 15.6767 21.3752 15.9391 21.3697 16.1892C21.3614 16.5843 21.3491 16.9851 21.3371 17.3727L21.3364 17.3928C21.3191 17.9564 21.3013 18.5316 21.2952 19.0943C21.2913 19.4536 21.3171 19.7813 21.3721 20.0695C21.6996 19.6964 22.0254 19.2543 22.4184 18.6501C22.9576 17.8209 23.4272 16.8434 23.8961 15.5741C24.1864 14.7906 24.5297 14.5387 25.309 14.537C26.3956 14.5341 27.4827 14.5333 28.5695 14.537C28.8488 14.5382 29.0854 14.5733 29.2937 14.6442C29.8249 14.8258 30.0961 15.3515 29.969 15.9528C29.7815 16.8452 29.3335 17.5743 28.9284 18.1877C28.488 18.8541 28.0277 19.5184 27.5826 20.1609C27.3459 20.5025 27.1132 20.8383 26.8824 21.1755C26.8182 21.2695 26.7541 21.3787 26.6811 21.5191C26.5208 21.8302 26.5414 21.853 26.7388 22.0716C26.977 22.3347 27.2279 22.5973 27.4706 22.8512C27.8297 23.2269 28.1978 23.6121 28.5435 24.0174C28.9948 24.5474 29.3923 25.1019 29.7258 25.6664C30.0209 26.166 30.0805 26.7068 29.8894 27.1501C29.7794 27.4056 29.486 27.8513 28.7587 27.9622C28.6495 27.9783 28.4237 28 27.7157 28ZM21.6436 23.1984C22.0437 23.1984 22.4455 23.354 22.8056 23.6482C23.0055 23.8111 23.2037 24.0035 23.4106 24.2355C23.5874 24.434 23.7602 24.6352 23.9273 24.8299L23.9381 24.8425C24.2263 25.1785 24.524 25.5254 24.8244 25.8354C25.0608 26.0792 25.3438 26.1985 25.6897 26.2002C25.7098 26.2003 25.7839 26.202 25.8974 26.2049C26.249 26.2134 27.0594 26.2332 27.7155 26.2332C27.8677 26.2332 27.993 26.2321 28.0955 26.2304C27.8672 25.8833 27.6096 25.541 27.3266 25.2087C27.0131 24.8411 26.6621 24.4738 26.3226 24.1186C26.0688 23.8532 25.8097 23.5821 25.5553 23.3009C24.8371 22.506 24.7342 21.6426 25.2403 20.6611C25.3487 20.4527 25.4478 20.2849 25.5533 20.1304C25.7864 19.79 26.021 19.4513 26.2556 19.1127C26.6993 18.4724 27.154 17.8161 27.5835 17.1662C27.7593 16.9 27.945 16.6085 28.0954 16.3022C27.1972 16.3001 26.2982 16.301 25.3993 16.3032C24.8917 17.6648 24.3731 18.7336 23.7703 19.6604C23.3021 20.38 22.9104 20.9047 22.4999 21.3616C22.0591 21.8516 21.6008 21.9543 21.2937 21.9543C20.5516 21.9543 19.9543 21.3821 19.7717 20.4965C19.6834 20.0649 19.6416 19.5866 19.6472 19.0735C19.6535 18.492 19.6715 17.9071 19.689 17.3415L19.6898 17.3143C19.7016 16.9311 19.7138 16.5352 19.722 16.1484C19.7242 16.0481 19.7191 15.9423 19.7066 15.8322C19.5399 15.8052 19.3564 15.791 19.1499 15.7891C18.9419 15.7867 18.7345 15.7827 18.5273 15.7785C18.2218 15.7724 17.9032 15.7658 17.5992 15.7668C17.7066 16.0484 17.7705 16.3662 17.7883 16.7164C17.8346 17.6386 17.8537 18.2406 17.8367 19.1676C17.8292 19.6114 17.7146 20.407 17.556 20.8817C17.3292 21.5668 16.7888 21.9942 16.1467 21.9942C15.8285 21.9942 15.5099 21.8836 15.2252 21.6743C14.9495 21.4718 14.7018 21.2272 14.509 20.9673C13.5214 19.6418 12.7112 18.1244 12.0333 16.3302C12.0299 16.3213 12.0267 16.3134 12.0238 16.3063C12.0231 16.3062 12.0224 16.3061 12.0217 16.3061C11.8962 16.3024 10.8317 16.2795 9.97797 16.2748C10.2291 16.8541 10.5204 17.5193 10.5619 17.6095C11.6412 19.9265 12.5904 21.6001 13.6391 23.0352C14.4254 24.1115 15.2519 24.8897 16.1657 25.4144C17.0482 25.9212 18.0728 26.1676 19.2981 26.1676C19.4327 26.1676 19.5723 26.1647 19.7151 26.1588C19.7691 25.7241 19.889 24.8933 20.0628 24.4232C20.3475 23.656 20.9383 23.1984 21.6436 23.1984Z" fill="#797282"/>
</g>
</svg>
