<svg width="44" height="44" viewBox="0 0 44 44" fill="none" xmlns="http://www.w3.org/2000/svg">
<g id="services icons">
<mask id="mask0_587_449" style="mask-type:alpha" maskUnits="userSpaceOnUse" x="0" y="0" width="44" height="44">
<rect id="Bounding box" width="44" height="44" fill="#D9D9D9"/>
</mask>
<g mask="url(#mask0_587_449)">
<path id="captive_portal" d="M18.4494 36.159C17.7466 35.0801 17.1214 33.9072 16.5737 32.6403C16.0261 31.3734 15.5853 30.0713 15.2516 28.7339H9.03228C10.0124 30.6495 11.2993 32.246 12.8929 33.5235C14.4865 34.801 16.3387 35.6795 18.4494 36.159ZM7.87943 25.984H14.6945C14.5794 25.3023 14.4959 24.6342 14.4442 23.9796C14.3925 23.325 14.3667 22.6651 14.3667 22C14.3667 21.3348 14.3925 20.6749 14.4442 20.0203C14.4959 19.3657 14.5794 18.6976 14.6945 18.0159H7.87943C7.70316 18.6388 7.56801 19.2864 7.47399 19.9586C7.37997 20.6308 7.33296 21.3113 7.33296 22C7.33296 22.6886 7.37997 23.3691 7.47399 24.0413C7.56801 24.7135 7.70316 25.3611 7.87943 25.984ZM9.03228 15.266H15.2516C15.5618 13.9169 15.9967 12.6 16.5561 11.3155C17.1155 10.031 17.7466 8.87279 18.4494 7.84093C16.3975 8.29691 14.557 9.17245 12.9282 10.4675C11.2993 11.7626 10.0007 13.3621 9.03228 15.266ZM18.0756 15.266H25.9237C25.5218 13.7688 25.0011 12.3891 24.3618 11.1269C23.7225 9.86472 22.9351 8.6131 21.9996 7.37206C21.0641 8.56608 20.2826 9.79418 19.6551 11.0564C19.0275 12.3186 18.501 13.7218 18.0756 15.266ZM28.7477 15.266H34.967C33.9986 13.3621 32.7 11.7597 31.0711 10.4588C29.4422 9.15779 27.6018 8.28518 25.5499 7.84093C26.1939 8.86103 26.7956 10.0133 27.355 11.2979C27.9144 12.5824 28.3787 13.9051 28.7477 15.266ZM21.9996 39.4166C19.6116 39.4166 17.3581 38.9588 15.2393 38.0433C13.1204 37.1278 11.2723 35.8815 9.69517 34.3044C8.11804 32.7273 6.87174 30.8792 5.95627 28.7603C5.04076 26.6414 4.58301 24.388 4.58301 22C4.58301 19.5931 5.04076 17.335 5.95627 15.2255C6.87174 13.116 8.11804 11.2726 9.69517 9.69549C11.2723 8.11836 13.1204 6.87206 15.2393 5.95659C17.3581 5.04108 19.6116 4.58333 21.9996 4.58333C24.4065 4.58333 26.6646 5.04108 28.7741 5.95659C30.8836 6.87206 32.7269 8.11836 34.3041 9.69549C35.8812 11.2726 37.1275 13.116 38.043 15.2255C38.9585 17.335 39.4163 19.5931 39.4163 22C39.4163 22.3173 39.4086 22.6405 39.3933 22.9695C39.3781 23.2986 39.3493 23.6217 39.3069 23.9391H36.5112C36.5723 23.6217 36.6134 23.3033 36.6346 22.9836C36.6557 22.664 36.6663 22.3361 36.6663 22C36.6663 21.3113 36.6193 20.6308 36.5253 19.9586C36.4312 19.2864 36.2961 18.6388 36.1198 18.0159H29.3047C29.4199 18.6976 29.5033 19.3657 29.555 20.0203C29.6067 20.6749 29.6326 21.3348 29.6326 22C29.6326 22.3361 29.6296 22.661 29.6238 22.9748C29.6179 23.2886 29.5997 23.61 29.5691 23.9391H26.8192C26.8497 23.6217 26.868 23.3033 26.8739 22.9836C26.8797 22.664 26.8827 22.3361 26.8827 22C26.8827 21.3113 26.8568 20.6455 26.8051 20.0027C26.7534 19.3598 26.6699 18.6976 26.5548 18.0159H17.4445C17.3293 18.6976 17.2459 19.3598 17.1941 20.0027C17.1424 20.6455 17.1166 21.3113 17.1166 22C17.1166 22.6886 17.1424 23.3544 17.1941 23.9972C17.2459 24.6401 17.3293 25.3023 17.4445 25.984H23.9387V28.7339H18.0756C18.501 30.2664 19.0363 31.6784 19.6815 32.97C20.3267 34.2615 21.0994 35.4808 21.9996 36.6278C22.3592 36.1507 22.6977 35.663 23.015 35.1647C23.3323 34.6664 23.6402 34.1575 23.9387 33.6381V39.3073C23.6214 39.3496 23.3029 39.3784 22.9833 39.3937C22.6636 39.4089 22.3357 39.4166 21.9996 39.4166ZM36.5746 38.5351L30.7079 32.6684V37.3999H27.958V27.9583H37.3996V30.7082H32.6223L38.489 36.575L36.5746 38.5351Z" fill="#5430B6"/>
</g>
</g>
</svg>
