<svg width="44" height="44" viewBox="0 0 44 44" fill="none" xmlns="http://www.w3.org/2000/svg">
<g id="services icons">
<mask id="mask0_587_661" style="mask-type:alpha" maskUnits="userSpaceOnUse" x="0" y="0" width="44" height="44">
<rect id="Bounding box" width="44" height="44" fill="#D9D9D9"/>
</mask>
<g mask="url(#mask0_587_661)">
<path id="ad_units" d="M15.1247 15.5832V12.8333H28.8746V15.5832H15.1247ZM13.3971 41.2499C12.471 41.2499 11.6872 40.9291 11.0455 40.2874C10.4038 39.6457 10.083 38.8619 10.083 37.9358V6.06412C10.083 5.13804 10.4038 4.35417 11.0455 3.7125C11.6872 3.07083 12.471 2.75 13.3971 2.75H30.6021C31.5282 2.75 32.3121 3.07083 32.9538 3.7125C33.5954 4.35417 33.9163 5.13804 33.9163 6.06412V37.9358C33.9163 38.8619 33.5954 39.6457 32.9538 40.2874C32.3121 40.9291 31.5282 41.2499 30.6021 41.2499H13.3971ZM12.833 36.2082V37.9358C12.833 38.0768 12.8917 38.2061 13.0092 38.3237C13.1268 38.4412 13.2561 38.5 13.3971 38.5H30.6021C30.7432 38.5 30.8725 38.4412 30.99 38.3237C31.1075 38.2061 31.1663 38.0768 31.1663 37.9358V36.2082H12.833ZM12.833 33.4583H31.1663V10.5416H12.833V33.4583ZM12.833 7.79167H31.1663V6.06412C31.1663 5.92307 31.1075 5.79378 30.99 5.67623C30.8725 5.55871 30.7432 5.49996 30.6021 5.49996H13.3971C13.2561 5.49996 13.1268 5.55871 13.0092 5.67623C12.8917 5.79378 12.833 5.92307 12.833 6.06412V7.79167Z" fill="#5430B6"/>
</g>
</g>
</svg>
